Coordinates
version=1
nRows=13
nColumns=27
inDegrees=yes

Units are S.I. units (second, meters, Newtons, ...)
Angles are in degrees.

endheader
time	pelvis_rotation	pelvis_list	pelvis_tilt	pelvis_tx	pelvis_ty	pelvis_tz	hip_flexion_r	hip_adduction_r	hip_rotation_r	knee_angle_r	knee_adduction_r	knee_rotation_r	ankle_angle_r	ankle_rot_r	subtalar_angle_r	mtp_angle_r	hip_flexion_l	hip_adduction_l	hip_rotation_l	knee_angle_l	knee_adduction_l	knee_rotation_l	ankle_angle_l	ankle_rot_l	subtalar_angle_l	mtp_angle_l
      0.00000000	     -0.57979470	      4.30369265	    -12.40173286	      0.84508219	      0.62318143	     -0.41961742	     43.96706081	     -0.86221959	     -2.60083922	    -28.50888860	     -9.67619625	     25.93478119	    -27.34848589	     -3.52465841	      0.00000294	      0.00000000	      2.14825029	      4.38634089	     -1.07097992	    -18.03698119	     -6.16542713	     15.83107060	    -26.54654894	     12.01449573	      0.00000636	      0.00000000
      0.01000000	     -0.14600145	      3.87005936	    -12.22297078	      0.85517904	      0.62165289	     -0.41855919	     43.41986737	      0.05828450	     -1.12457075	    -29.32929380	    -10.15869537	     26.45390219	    -26.03906754	     -4.53252691	      0.00000049	      0.00000000	      1.77060456	      3.74507648	     -1.11499873	    -19.00969317	     -6.26194297	     15.71094033	    -27.46966224	     12.19425418	      0.00000953	      0.00000000
      0.02000000	      0.12955649	      3.14852613	    -12.16498769	      0.86520967	      0.62025384	     -0.41735717	     43.09919234	      1.29059465	      0.36632331	    -30.77753935	    -10.39904289	     26.98252165	    -24.74394968	     -5.89972523	     -0.00000275	      0.00000000	      1.68768035	      2.81173327	     -1.50377698	    -20.13925867	     -6.42045985	     15.64473433	    -28.69893514	     12.54525536	      0.00001127	      0.00000000
      0.03000000	      0.25121252	      2.14779905	    -12.19115008	      0.87511783	      0.61907159	     -0.41600032	     42.94067672	      2.77304917	      1.63446770	    -32.52869668	    -10.37637150	     27.36915845	    -23.72947897	     -7.24471924	      0.00000219	      0.00000000	      1.79507739	      1.58961670	     -2.09740576	    -21.31406545	     -6.60318024	     15.63006970	    -30.16324639	     12.99734571	      0.00001355	      0.00000000
      0.04000000	      0.28508144	      0.95596034	    -12.21064825	      0.88482468	      0.61821445	     -0.41459701	     42.80755613	      4.31654415	      2.51682952	    -34.26918695	    -10.08359386	     27.32652199	    -22.99934932	     -8.07848086	     -0.00000253	      0.00000000	      1.99353830	      0.19709826	     -2.83886037	    -22.47960796	     -6.87153805	     15.64623796	    -32.06768199	     13.47464875	      0.00001339	      0.00000000
      0.05000000	      0.17386289	     -0.37460834	    -12.27028591	      0.89434676	      0.61764989	     -0.41304000	     42.69268344	      5.90852314	      2.94058504	    -35.77683219	     -9.68316828	     27.08257566	    -22.64646236	     -8.47211909	     -0.00000217	      0.00000000	      2.25830634	     -1.33056891	     -3.69870078	    -23.52991723	     -7.16443292	     15.66820541	    -34.24115416	     14.07042623	      0.00001694	      0.00000000
      0.06000000	     -0.03181818	     -1.72001275	    -12.34664123	      0.90367360	      0.61740119	     -0.41140481	     42.52816394	      7.37655661	      2.84012173	    -36.93743321	     -9.28513985	     26.70786158	    -22.52364270	     -8.34289376	     -0.00000113	      0.00000000	      2.53907914	     -2.84615786	     -4.59553850	    -24.40066597	     -7.50439375	     15.69184457	    -36.70588103	     14.74547803	      0.00001939	      0.00000000
      0.07000000	     -0.28696829	     -2.96818440	    -12.44700034	      0.91280049	      0.61746627	     -0.40974650	     42.27384927	      8.59484423	      2.24119179	    -37.70136709	     -8.98159360	     26.32503425	    -22.52215154	     -7.73997327	     -0.00000021	      0.00000000	      2.82954673	     -4.22263120	     -5.42316687	    -25.06576653	     -7.87985263	     15.72601338	    -39.37090418	     15.45985002	      0.00001960	      0.00000000
      0.08000000	     -0.55656472	     -4.03889799	    -12.57983328	      0.92172390	      0.61783804	     -0.40811369	     41.90682019	      9.48630044	      1.24730451	    -38.08251354	     -8.79770466	     26.06512641	    -22.54388445	     -6.79822767	     -0.00000266	      0.00000000	      3.13982503	     -5.36420728	     -6.08035842	    -25.54429730	     -8.26931089	     15.79172387	    -42.05653953	     16.13992102	      0.00002441	      0.00000000
      0.09000000	     -0.81829198	     -4.89925263	    -12.74505413	      0.93043948	      0.61851776	     -0.40654135	     41.40888055	     10.03903065	      0.03230810	    -38.12079104	     -8.68922291	     25.99854744	    -22.53531815	     -5.68691723	     -0.00000527	      0.00000000	      3.48351507	     -6.23015637	     -6.50000946	    -25.88850533	     -8.64687342	     15.93691440	    -44.54058817	     16.72614196	      0.00002549	      0.00000000
      0.10000000	     -1.09143029	     -5.54800149	    -12.92645113	      0.93891561	      0.61949792	     -0.40501193	     40.77449400	     10.31137432	     -1.16567638	    -37.88696815	     -8.58237399	     26.13793327	    -22.50526440	     -4.60764857	     -0.00000265	      0.00000000	      3.88332775	     -6.82431019	     -6.70659576	    -26.20234381	     -8.97967043	     16.21647063	    -46.62604135	     17.10838137	      0.00002777	      0.00000000
      0.11000000	     -1.36797885	     -6.03017585	    -13.11195291	      0.94721151	      0.62081147	     -0.40354583	     39.97718449	     10.37670941	     -2.19832936	    -37.37790268	     -8.40284646	     26.37246669	    -22.47631252	     -3.55547534	     -0.00000361	      0.00000000	      4.29153808	     -7.18948994	     -6.66400445	    -26.45240406	     -9.24429785	     16.61740740	    -48.12738458	     17.39087013	      0.00002978	      0.00000000
      0.12000000	     -1.68184000	     -6.38510015	    -13.26966262	      0.95526479	      0.62242738	     -0.40209103	     39.02118692	     10.37528526	     -2.86084423	    -36.66557961	     -8.15085260	     26.60695969	    -22.49655336	     -2.62974196	     -0.00000472	      0.00000000	      4.71741430	     -7.36812979	     -6.37330217	    -26.74685613	     -9.41543664	     17.09285013	    -48.98855383	     17.49045628	      0.00003084	      0.00000000
